<mxfile host="65bd71144e">
    <diagram id="Xpg1KQSI-K04I9egeM_D" name="Page-1">
        <mxGraphModel dx="1081" dy="779" grid="1" gridSize="10" guides="1" tooltips="1" connect="1" arrows="1" fold="1" page="1" pageScale="1" pageWidth="1100" pageHeight="1700" math="0" shadow="0">
            <root>
                <mxCell id="0"/>
                <mxCell id="1" parent="0"/>
                <mxCell id="2" value="" style="rounded=0;whiteSpace=wrap;html=1;fontSize=14;fillColor=#fa6800;fontColor=#000000;strokeColor=#C73500;" vertex="1" parent="1">
                    <mxGeometry x="30" y="20" width="1050" height="60" as="geometry"/>
                </mxCell>
                <mxCell id="3" value="CONTROLL BOX VERSION TWO&amp;nbsp;" style="text;html=1;strokeColor=none;fillColor=none;align=center;verticalAlign=middle;whiteSpace=wrap;rounded=0;fontSize=63;" vertex="1" parent="1">
                    <mxGeometry x="50" y="35" width="1010" height="30" as="geometry"/>
                </mxCell>
                <mxCell id="4" value="" style="rounded=0;whiteSpace=wrap;html=1;fontSize=63;" vertex="1" parent="1">
                    <mxGeometry x="40" y="120" width="380" height="240" as="geometry"/>
                </mxCell>
                <mxCell id="5" value="COMPONENT LIST :-" style="text;html=1;strokeColor=#432D57;fillColor=#76608a;align=center;verticalAlign=middle;whiteSpace=wrap;rounded=0;fontSize=16;fontColor=#ffffff;" vertex="1" parent="1">
                    <mxGeometry x="60" y="140" width="340" height="30" as="geometry"/>
                </mxCell>
                <mxCell id="6" value="ARDUINO NANO" style="text;html=1;strokeColor=#314354;fillColor=#647687;align=center;verticalAlign=middle;whiteSpace=wrap;rounded=0;fontSize=16;fontColor=#ffffff;" vertex="1" parent="1">
                    <mxGeometry x="60" y="190" width="270" height="30" as="geometry"/>
                </mxCell>
                <mxCell id="7" value="WS2812-B" style="text;html=1;strokeColor=#314354;fillColor=#647687;align=center;verticalAlign=middle;whiteSpace=wrap;rounded=0;fontSize=16;fontColor=#ffffff;" vertex="1" parent="1">
                    <mxGeometry x="60" y="230" width="270" height="30" as="geometry"/>
                </mxCell>
                <mxCell id="8" value="BUZZER" style="text;html=1;strokeColor=#314354;fillColor=#647687;align=center;verticalAlign=middle;whiteSpace=wrap;rounded=0;fontSize=16;fontColor=#ffffff;" vertex="1" parent="1">
                    <mxGeometry x="60" y="270" width="270" height="30" as="geometry"/>
                </mxCell>
                <mxCell id="9" value="NRF24L01 PA+LNA" style="text;html=1;strokeColor=#314354;fillColor=#647687;align=center;verticalAlign=middle;whiteSpace=wrap;rounded=0;fontSize=16;fontColor=#ffffff;" vertex="1" parent="1">
                    <mxGeometry x="60" y="310" width="270" height="30" as="geometry"/>
                </mxCell>
                <mxCell id="10" value="" style="rounded=0;whiteSpace=wrap;html=1;fontSize=16;" vertex="1" parent="1">
                    <mxGeometry x="470" y="120" width="580" height="640" as="geometry"/>
                </mxCell>
                <mxCell id="11" value="ARDUINO NANO" style="text;html=1;strokeColor=#432D57;fillColor=#76608a;align=center;verticalAlign=middle;whiteSpace=wrap;rounded=0;fontSize=16;fontColor=#ffffff;" vertex="1" parent="1">
                    <mxGeometry x="490" y="140" width="260" height="30" as="geometry"/>
                </mxCell>
                <mxCell id="12" value="WS2812-B" style="text;html=1;strokeColor=#432D57;fillColor=#76608a;align=center;verticalAlign=middle;whiteSpace=wrap;rounded=0;fontSize=16;fontColor=#ffffff;" vertex="1" parent="1">
                    <mxGeometry x="820" y="140" width="210" height="30" as="geometry"/>
                </mxCell>
                <mxCell id="13" value="WS2812-B" style="text;html=1;strokeColor=#314354;fillColor=#647687;align=center;verticalAlign=middle;whiteSpace=wrap;rounded=0;fontSize=16;fontColor=#ffffff;" vertex="1" parent="1">
                    <mxGeometry x="820" y="190" width="210" height="30" as="geometry"/>
                </mxCell>
                <mxCell id="15" value="D2" style="text;html=1;strokeColor=#314354;fillColor=#647687;align=center;verticalAlign=middle;whiteSpace=wrap;rounded=0;fontSize=16;fontColor=#ffffff;" vertex="1" parent="1">
                    <mxGeometry x="490" y="190" width="260" height="30" as="geometry"/>
                </mxCell>
                <mxCell id="16" value="BUZZER" style="text;html=1;strokeColor=#432D57;fillColor=#76608a;align=center;verticalAlign=middle;whiteSpace=wrap;rounded=0;fontSize=16;fontColor=#ffffff;" vertex="1" parent="1">
                    <mxGeometry x="820" y="270" width="210" height="30" as="geometry"/>
                </mxCell>
                <mxCell id="17" value="BUZZER" style="text;html=1;strokeColor=#314354;fillColor=#647687;align=center;verticalAlign=middle;whiteSpace=wrap;rounded=0;fontSize=16;fontColor=#ffffff;" vertex="1" parent="1">
                    <mxGeometry x="820" y="320" width="210" height="30" as="geometry"/>
                </mxCell>
                <mxCell id="18" value="D3" style="text;html=1;strokeColor=#314354;fillColor=#647687;align=center;verticalAlign=middle;whiteSpace=wrap;rounded=0;fontSize=16;fontColor=#ffffff;" vertex="1" parent="1">
                    <mxGeometry x="490" y="320" width="260" height="30" as="geometry"/>
                </mxCell>
                <mxCell id="19" value="NRF24L01&amp;nbsp;" style="text;html=1;strokeColor=#432D57;fillColor=#76608a;align=center;verticalAlign=middle;whiteSpace=wrap;rounded=0;fontSize=16;fontColor=#ffffff;" vertex="1" parent="1">
                    <mxGeometry x="820" y="380" width="210" height="30" as="geometry"/>
                </mxCell>
                <mxCell id="20" value="VCC" style="text;html=1;strokeColor=#314354;fillColor=#647687;align=center;verticalAlign=middle;whiteSpace=wrap;rounded=0;fontSize=16;fontColor=#ffffff;" vertex="1" parent="1">
                    <mxGeometry x="820" y="425" width="210" height="30" as="geometry"/>
                </mxCell>
                <mxCell id="21" value="GND" style="text;html=1;strokeColor=none;fillColor=#647687;align=center;verticalAlign=middle;whiteSpace=wrap;rounded=0;fontSize=16;fontColor=#ffffff;" vertex="1" parent="1">
                    <mxGeometry x="820" y="470" width="210" height="30" as="geometry"/>
                </mxCell>
                <mxCell id="22" value="CE" style="text;html=1;strokeColor=#314354;fillColor=#647687;align=center;verticalAlign=middle;whiteSpace=wrap;rounded=0;fontSize=16;fontColor=#ffffff;" vertex="1" parent="1">
                    <mxGeometry x="820" y="510" width="210" height="30" as="geometry"/>
                </mxCell>
                <mxCell id="23" value="CNS" style="text;html=1;strokeColor=#314354;fillColor=#647687;align=center;verticalAlign=middle;whiteSpace=wrap;rounded=0;fontSize=16;fontColor=#ffffff;" vertex="1" parent="1">
                    <mxGeometry x="820" y="550" width="210" height="30" as="geometry"/>
                </mxCell>
                <mxCell id="24" value="MOSI" style="text;html=1;strokeColor=#314354;fillColor=#647687;align=center;verticalAlign=middle;whiteSpace=wrap;rounded=0;fontSize=16;fontColor=#ffffff;" vertex="1" parent="1">
                    <mxGeometry x="820" y="590" width="210" height="30" as="geometry"/>
                </mxCell>
                <mxCell id="25" value="MISO" style="text;html=1;strokeColor=#314354;fillColor=#647687;align=center;verticalAlign=middle;whiteSpace=wrap;rounded=0;fontSize=16;fontColor=#ffffff;" vertex="1" parent="1">
                    <mxGeometry x="820" y="630" width="210" height="30" as="geometry"/>
                </mxCell>
                <mxCell id="26" value="SCK" style="text;html=1;strokeColor=#314354;fillColor=#647687;align=center;verticalAlign=middle;whiteSpace=wrap;rounded=0;fontSize=16;fontColor=#ffffff;" vertex="1" parent="1">
                    <mxGeometry x="820" y="670" width="210" height="30" as="geometry"/>
                </mxCell>
                <mxCell id="27" value="3.3V" style="text;html=1;strokeColor=#314354;fillColor=#647687;align=center;verticalAlign=middle;whiteSpace=wrap;rounded=0;fontSize=16;fontColor=#ffffff;" vertex="1" parent="1">
                    <mxGeometry x="500" y="425" width="250" height="30" as="geometry"/>
                </mxCell>
                <mxCell id="28" value="GND" style="text;html=1;strokeColor=#314354;fillColor=#647687;align=center;verticalAlign=middle;whiteSpace=wrap;rounded=0;fontSize=16;fontColor=#ffffff;" vertex="1" parent="1">
                    <mxGeometry x="500" y="470" width="250" height="30" as="geometry"/>
                </mxCell>
                <mxCell id="29" value="D7" style="text;html=1;strokeColor=#314354;fillColor=#647687;align=center;verticalAlign=middle;whiteSpace=wrap;rounded=0;fontSize=16;fontColor=#ffffff;" vertex="1" parent="1">
                    <mxGeometry x="500" y="510" width="250" height="30" as="geometry"/>
                </mxCell>
                <mxCell id="30" value="D8" style="text;html=1;strokeColor=#314354;fillColor=#647687;align=center;verticalAlign=middle;whiteSpace=wrap;rounded=0;fontSize=16;fontColor=#ffffff;" vertex="1" parent="1">
                    <mxGeometry x="500" y="550" width="250" height="30" as="geometry"/>
                </mxCell>
                <mxCell id="31" value="D11" style="text;html=1;strokeColor=#314354;fillColor=#647687;align=center;verticalAlign=middle;whiteSpace=wrap;rounded=0;fontSize=16;fontColor=#ffffff;" vertex="1" parent="1">
                    <mxGeometry x="500" y="590" width="250" height="30" as="geometry"/>
                </mxCell>
                <mxCell id="32" value="D12" style="text;html=1;strokeColor=#314354;fillColor=#647687;align=center;verticalAlign=middle;whiteSpace=wrap;rounded=0;fontSize=16;fontColor=#ffffff;" vertex="1" parent="1">
                    <mxGeometry x="500" y="630" width="250" height="30" as="geometry"/>
                </mxCell>
                <mxCell id="33" value="D13" style="text;html=1;strokeColor=#314354;fillColor=#647687;align=center;verticalAlign=middle;whiteSpace=wrap;rounded=0;fontSize=16;fontColor=#ffffff;" vertex="1" parent="1">
                    <mxGeometry x="500" y="670" width="250" height="30" as="geometry"/>
                </mxCell>
            </root>
        </mxGraphModel>
    </diagram>
</mxfile>